<svg width="17" height="14" viewBox="0 0 17 14" fill="none" xmlns="http://www.w3.org/2000/svg">
<path d="M0.845255 1.81464H16.2752C16.4877 1.81464 16.6604 1.64197 16.6604 1.42948C16.6604 1.2168 16.4875 1.04478 16.2752 1.04478H0.845255C0.63332 1.04478 0.460547 1.2169 0.460547 1.42948C0.460547 1.64173 0.633093 1.81464 0.845255 1.81464Z" fill="#303030" stroke="#303030" stroke-width="0.2"/>
<path d="M16.2752 6.61509H0.845255C0.633115 6.61509 0.460547 6.78787 0.460547 7.00024C0.460547 7.21263 0.633119 7.3854 0.845255 7.3854H16.2752C16.4877 7.3854 16.6604 7.21273 16.6604 7.00024C16.6604 6.78776 16.4877 6.61509 16.2752 6.61509Z" fill="#303030" stroke="#303030" stroke-width="0.2"/>
<path d="M16.2753 12.1854H0.845255C0.633252 12.1854 0.460547 12.3582 0.460547 12.5706C0.460547 12.7831 0.633324 12.9553 0.845255 12.9553H16.2753C16.4875 12.9553 16.6604 12.7832 16.6604 12.5706C16.6604 12.3582 16.4878 12.1854 16.2753 12.1854Z" fill="#303030" stroke="#303030" stroke-width="0.2"/>
</svg>
