<svg width="15" height="16" viewBox="0 0 15 16" fill="none" xmlns="http://www.w3.org/2000/svg">
<path d="M11.656 1.19404H11.4172V0.477574C11.4172 0.214876 11.2023 0 10.9396 0C10.6769 0 10.462 0.214889 10.462 0.477574V1.19404H4.73062V0.477574C4.73062 0.214876 4.51573 0 4.25304 0C3.99035 0 3.77547 0.214889 3.77547 0.477574V1.19404H3.53659C1.69772 1.19404 0.193359 2.69858 0.193359 4.53728V12.6568C0.193359 14.4956 1.6979 16 3.53659 16H11.6561C13.495 16 14.9993 14.4955 14.9993 12.6568L14.9995 4.5377C14.9995 2.69883 13.4949 1.1943 11.6561 1.1943L11.656 1.19404ZM14.0441 12.6569C14.0441 13.9703 12.9695 15.0449 11.656 15.0449H3.53656C2.22307 15.0449 1.14847 13.9703 1.14847 12.6569V4.53736C1.14847 3.22387 2.22307 2.14928 3.53656 2.14928H3.77544V2.86574C3.77544 3.12844 3.99032 3.34332 4.25301 3.34332C4.51571 3.34332 4.73058 3.12843 4.73058 2.86574V2.14928H10.462V2.86574C10.462 3.12844 10.6769 3.34332 10.9396 3.34332C11.2023 3.34332 11.4171 3.12843 11.4171 2.86574V2.14928H11.656C12.9695 2.14928 14.0441 3.22387 14.0441 4.53736L14.0441 12.6569Z" fill="#303030"/>
<path d="M12.1343 4.72852H3.05961C2.79691 4.72852 2.58203 4.94341 2.58203 5.20609C2.58203 5.46879 2.79692 5.68366 3.05961 5.68366H12.1343C12.397 5.68366 12.6119 5.46878 12.6119 5.20609C12.6121 4.94339 12.397 4.72852 12.1343 4.72852Z" fill="#303030"/>
</svg>
