<svg width="25" height="16" viewBox="0 0 25 16" fill="none" xmlns="http://www.w3.org/2000/svg">
<path d="M23.7188 0H1.51053C0.804701 0 0.230469 0.574024 0.230469 1.28006V14.7199C0.230469 15.4258 0.804493 16 1.51053 16H23.7188C24.4246 16 24.9988 15.426 24.9988 14.7199V1.28006C24.9988 0.574076 24.4246 0 23.7188 0ZM24.2001 14.7199C24.2001 14.9853 23.9841 15.2013 23.7188 15.2013H1.51053C1.24516 15.2013 1.02921 14.9853 1.02921 14.7199V1.28006C1.02921 1.0147 1.24516 0.798745 1.51053 0.798745H23.7188C23.9841 0.798745 24.2001 1.0147 24.2001 1.28006V14.7199ZM3.75551 7.16866H6.65135C7.1843 7.16866 7.61782 6.73534 7.61782 6.20219V3.57923C7.61782 3.04628 7.1845 2.61275 6.65135 2.61275H3.75551C3.22256 2.61275 2.78904 3.04608 2.78904 3.57923V6.20219C2.78904 6.73493 3.22236 7.16866 3.75551 7.16866ZM3.58775 3.57923C3.58775 3.48854 3.66441 3.41167 3.75531 3.41167H6.65114C6.74184 3.41167 6.8187 3.48833 6.8187 3.57923V6.20219C6.8187 6.29288 6.74204 6.36975 6.65114 6.36975H3.75531C3.66462 6.36975 3.58775 6.29308 3.58775 6.20219V3.57923ZM21.2447 10.5355C20.9897 10.5355 20.741 10.5912 20.5135 10.6976C20.2859 10.591 20.037 10.5355 19.782 10.5355C18.8298 10.5355 18.0556 11.31 18.0556 12.2619C18.0556 13.2137 18.8302 13.9883 19.782 13.9883C20.037 13.9883 20.2857 13.9326 20.5135 13.8262C20.741 13.9328 20.9897 13.9883 21.2447 13.9883C22.197 13.9883 22.9711 13.2137 22.9711 12.2619C22.9711 11.3103 22.197 10.5355 21.2447 10.5355ZM21.2447 13.1897C21.0621 13.1897 20.8854 13.1369 20.7339 13.0366C20.667 12.9923 20.5901 12.9703 20.5135 12.9703C20.4368 12.9703 20.3599 12.9923 20.293 13.0366C20.1413 13.1369 19.9646 13.1897 19.782 13.1897C19.2706 13.1897 18.8546 12.7735 18.8546 12.2619C18.8546 11.7505 19.2709 11.3345 19.782 11.3345C19.9646 11.3345 20.1413 11.3873 20.293 11.4876C20.4266 11.5762 20.6003 11.5758 20.7341 11.4876C20.8856 11.3873 21.0619 11.3345 21.2449 11.3345C21.7565 11.3345 22.1728 11.7507 22.1728 12.2619C22.1726 12.7737 21.7563 13.1897 21.2447 13.1897H21.2447ZM2.78921 9.20318C2.78921 8.98255 2.96795 8.8036 3.18878 8.8036H6.50554C6.72617 8.8036 6.90512 8.98234 6.90512 9.20318C6.90512 9.42381 6.72638 9.60275 6.50554 9.60275H3.18837C2.96794 9.60275 2.7892 9.42401 2.7892 9.20318H2.78921ZM12.2853 9.20318C12.2853 9.42381 12.1066 9.60275 11.8857 9.60275H8.56938C8.34875 9.60275 8.16981 9.42401 8.16981 9.20318C8.16981 8.98255 8.34855 8.8036 8.56938 8.8036H11.8857C12.1066 8.80381 12.2853 8.98275 12.2853 9.20318ZM17.6664 9.20318C17.6664 9.42381 17.4876 9.60275 17.2668 9.60275H13.9502C13.7296 9.60275 13.5507 9.42401 13.5507 9.20318C13.5507 8.98255 13.7294 8.8036 13.9502 8.8036H17.2666C17.4874 8.80381 17.6664 8.98275 17.6664 9.20318H17.6664ZM23.0474 9.20318C23.0474 9.42381 22.8687 9.60275 22.6478 9.60275H19.3311C19.1104 9.60275 18.9315 9.42401 18.9315 9.20318C18.9315 8.98255 19.1102 8.8036 19.3311 8.8036H22.6478C22.8687 8.80381 23.0474 8.98275 23.0474 9.20318ZM9.51019 12.7568C9.51019 12.9775 9.33145 13.1564 9.11061 13.1564L3.18818 13.1562C2.96755 13.1562 2.78861 12.9775 2.78861 12.7566C2.78861 12.536 2.96735 12.3571 3.18818 12.3571H9.11061C9.33145 12.3573 9.51019 12.536 9.51019 12.7568Z" fill="#303030"/>
</svg>
