<svg width="14" height="14" viewBox="0 0 14 14" fill="none" xmlns="http://www.w3.org/2000/svg">
<path d="M2.07733 12.5861L12.988 1.67541C13.1382 1.52517 13.1382 1.28097 12.988 1.13072C12.8376 0.980327 12.5937 0.980933 12.4436 1.13104L1.53295 12.0417C1.38309 12.1916 1.38263 12.4354 1.53295 12.5858C1.68303 12.7358 1.92731 12.7361 2.07733 12.5861Z" fill="#303030" stroke="#303030" stroke-width="0.2"/>
<path d="M12.585 12.355L1.67437 1.44433C1.52446 1.29442 1.28019 1.29445 1.13 1.44465C0.979676 1.59497 0.980139 1.83885 1.13 1.98871L12.0407 12.8994C12.1908 13.0495 12.4346 13.0501 12.585 12.8997C12.7352 12.7495 12.7353 12.5053 12.585 12.355Z" fill="#303030" stroke="#303030" stroke-width="0.2"/>
</svg>
