<svg width="16" height="14" viewBox="0 0 16 14" fill="none" xmlns="http://www.w3.org/2000/svg">
<path d="M3.34583 11.9411C3.52868 11.2308 4.17356 10.7059 4.9411 10.7059C5.85066 10.7059 6.58808 11.4433 6.58808 12.3528C6.58808 13.2626 5.85066 14 4.9411 14C4.17356 14 3.52865 13.4751 3.34583 12.7647H0.4117C0.184224 12.7647 0 12.5803 0 12.3529C0 12.1255 0.184224 11.9412 0.4117 11.9412L3.34583 11.9411ZM7.46354 6.17638C7.64638 5.46601 8.29126 4.9411 9.05863 4.9411C9.96819 4.9411 10.7056 5.67852 10.7056 6.58825C10.7056 7.49782 9.96819 8.23523 9.05863 8.23523C8.29122 8.23523 7.64636 7.71033 7.46354 6.99995H0.411876C0.1844 6.99995 0.000176371 6.81556 0.000176371 6.58825C0.000176371 6.36078 0.1844 6.17638 0.411876 6.17638L7.46354 6.17638ZM4.16941 1.23528C4.35225 0.524904 4.99713 0 5.7645 0C6.67424 0 7.41166 0.737415 7.41166 1.64715C7.41166 2.55671 6.67424 3.29413 5.7645 3.29413C4.99709 3.29413 4.35223 2.76922 4.16941 2.05885H0.4117C0.184224 2.05885 0 1.87446 0 1.64715C0 1.41968 0.184224 1.23528 0.4117 1.23528L4.16941 1.23528ZM9.47051 2.05885C9.2432 2.05885 9.05881 1.87446 9.05881 1.64715C9.05881 1.41968 9.2432 1.23528 9.47051 1.23528H15.2353C15.4628 1.23528 15.647 1.41968 15.647 1.64715C15.647 1.87446 15.4628 2.05885 15.2353 2.05885H9.47051ZM12.7646 6.99995C12.5372 6.99995 12.3529 6.81556 12.3529 6.58825C12.3529 6.36078 12.5372 6.17638 12.7646 6.17638H15.2352C15.4627 6.17638 15.6469 6.36078 15.6469 6.58825C15.6469 6.81556 15.4627 6.99995 15.2352 6.99995H12.7646ZM8.64711 12.7647C8.41963 12.7647 8.23524 12.5803 8.23524 12.3529C8.23524 12.1255 8.41963 11.9412 8.64711 11.9412H15.2351C15.4626 11.9412 15.6468 12.1255 15.6468 12.3529C15.6468 12.5803 15.4626 12.7647 15.2351 12.7647H8.64711ZM5.76468 2.47046C6.21961 2.47046 6.58826 2.10184 6.58826 1.64706C6.58826 1.19213 6.21964 0.823488 5.76468 0.823488C5.30988 0.823488 4.94128 1.19211 4.94128 1.64706C4.94128 2.10187 5.3099 2.47046 5.76468 2.47046ZM9.05881 7.41157C9.51361 7.41157 9.88238 7.04295 9.88238 6.58817C9.88238 6.13323 9.51359 5.76459 9.05881 5.76459C8.60402 5.76459 8.23523 6.13321 8.23523 6.58817C8.23523 7.04297 8.60402 7.41157 9.05881 7.41157ZM4.94128 13.1763C5.39608 13.1763 5.76468 12.8077 5.76468 12.3528C5.76468 11.898 5.39606 11.5294 4.94128 11.5294C4.48635 11.5294 4.1177 11.898 4.1177 12.3528C4.1177 12.8077 4.48632 13.1763 4.94128 13.1763Z" fill="black"/>
</svg>
