<svg width="16" height="14" viewBox="0 0 16 14" fill="none" xmlns="http://www.w3.org/2000/svg">
<path d="M4.73728 0.000479725C3.47587 -0.017432 2.26119 0.466888 1.36767 1.34468C-0.455888 3.13599 -0.455888 6.05638 1.36767 7.84752L7.54035 13.9119V13.9121C7.66022 14.0293 7.85202 14.0293 7.97188 13.9121L14.1446 7.84766C15.9681 6.05634 15.9681 3.13596 14.1446 1.34482C12.3852 -0.383677 9.59089 -0.404346 7.75742 1.20249C6.9204 0.467971 5.86371 0.016589 4.73735 0.000469499L4.73728 0.000479725ZM10.8426 0.616514C11.8812 0.616514 12.9204 1.00589 13.7132 1.78477C15.2988 3.34227 15.2988 5.84993 13.7132 7.40757L7.75636 13.2596L1.79954 7.40757C0.213937 5.85007 0.213937 3.34241 1.79954 1.78477C2.5743 1.02366 3.63138 0.601911 4.7291 0.617749C5.78576 0.63318 6.79473 1.05216 7.54057 1.78477H7.5407C7.66057 1.90217 7.85237 1.90217 7.97223 1.78477C8.76505 1.00603 9.80421 0.616514 10.8428 0.616514H10.8426Z" fill="black"/>
</svg>
