<svg width="16" height="14" viewBox="0 0 16 14" fill="none" xmlns="http://www.w3.org/2000/svg">
<path d="M15.9695 6.79588C14.9926 3.97242 11.7156 2 8 2C4.28475 2 1.00748 3.972 0.0301334 6.79588L0 6.88329L0.0301334 6.97071C1.00735 9.79443 4.28443 11.7666 8 11.7666C11.7156 11.7666 14.9928 9.79459 15.9699 6.97071L16 6.88329L15.9695 6.79588ZM7.99968 11.2309C4.54805 11.2309 1.5089 9.44779 0.567578 6.88322C1.50868 4.31876 4.54837 2.53553 8 2.53553C11.4516 2.53553 14.4911 4.31866 15.4321 6.88322C14.491 9.44756 11.4516 11.2309 7.99968 11.2309ZM8.05796 3.94162C6.46599 3.94162 5.17074 5.23675 5.17074 6.82871C5.17074 8.42068 6.46599 9.71581 8.05796 9.71581C9.64992 9.71581 10.945 8.42068 10.945 6.82871C10.945 5.23675 9.64992 3.94162 8.05796 3.94162ZM8.05796 9.18027C6.7612 9.18027 5.7063 8.12547 5.7063 6.82871C5.7063 5.53196 6.76136 4.47715 8.05796 4.47715C9.35471 4.47715 10.4095 5.53222 10.4095 6.82871C10.4095 8.12534 9.35471 9.18027 8.05796 9.18027Z" fill="#303030"/>
<path d="M2 13L14 1" stroke="#303030" stroke-width="0.6" stroke-linecap="round"/>
</svg>
