<svg width="65" height="65" viewBox="0 0 65 65" fill="none" xmlns="http://www.w3.org/2000/svg">
<path d="M0.441406 17.3963V55.3829C0.445375 57.7847 1.40073 60.0865 3.09922 61.7848C4.79771 63.4831 7.09928 64.4386 9.50109 64.4426H47.4877C49.7 64.4387 51.8329 63.6271 53.4888 62.1598C55.1436 60.6936 56.206 58.6728 56.477 56.4782C58.6715 56.2074 60.6924 55.1449 62.1586 53.49C63.6259 51.8342 64.4374 49.7013 64.4414 47.4889V9.50231C64.4374 7.1005 63.4821 4.79875 61.7836 3.10044C60.0851 1.40213 57.7835 0.446691 55.3817 0.442627H17.3951C15.1828 0.446595 13.0499 1.2581 11.394 2.7254C9.73924 4.19168 8.67678 6.21244 8.40579 8.40701C6.21132 8.67785 4.19036 9.74036 2.72418 11.3952C1.25691 13.051 0.445368 15.184 0.441406 17.3963ZM9.50109 11.3665L47.4877 11.3656C49.0879 11.3656 50.6217 12.0005 51.7526 13.1314C52.8836 14.2624 53.5185 15.7961 53.5185 17.3964V43.238L38.8557 28.5752L23.4378 43.9921L16.9953 37.5496L3.46929 51.0606L3.47028 17.3967C3.47325 15.7984 4.11016 14.2667 5.24016 13.1368C6.37013 12.0058 7.90179 11.3699 9.50003 11.3659L9.50109 11.3665ZM56.6205 53.4065V17.3958C56.6364 14.9692 55.679 12.6379 53.9627 10.9226C52.2474 9.20631 49.9159 8.24904 47.4895 8.26479H11.4788C11.7536 6.89771 12.4937 5.66843 13.5721 4.78461C14.6505 3.90066 16.0007 3.41654 17.3956 3.41456H55.3822C56.9795 3.42249 58.5083 4.06041 59.6383 5.18939C60.7672 6.31837 61.4051 7.84822 61.4121 9.44545V47.4905C61.4131 48.8774 60.9369 50.2217 60.0648 51.299C59.1918 52.3754 57.9755 53.1205 56.6195 53.4072L56.6205 53.4065ZM3.4718 55.3838L16.9978 41.8727L23.4403 48.3152L38.8572 32.8696L53.52 47.5325V55.3838C53.5161 56.982 52.8801 58.5137 51.7492 59.6436C50.6192 60.7736 49.0875 61.4105 47.4893 61.4135H9.5027C7.90544 61.4066 6.37655 60.7686 5.24663 59.6397C4.11765 58.5097 3.47975 56.9808 3.47279 55.3836L3.4718 55.3838Z" fill="#303030"/>
<path d="M10.1133 25.3332C10.1133 27.1587 10.8395 28.9097 12.1302 30.2003C13.4209 31.492 15.172 32.2172 16.9973 32.2172C18.8226 32.2172 20.5737 31.492 21.8644 30.2003C23.1561 28.9097 23.8813 27.1585 23.8813 25.3332C23.8813 23.5079 23.1561 21.7568 21.8644 20.4661C20.5737 19.1744 18.8226 18.4492 16.9973 18.4492C15.172 18.4492 13.4209 19.1744 12.1302 20.4661C10.8395 21.7568 10.1133 23.5079 10.1133 25.3332ZM13.1432 25.3332C13.1392 24.3104 13.543 23.3273 14.2632 22.602C14.9845 21.8768 15.9646 21.4671 16.9884 21.4651C18.0112 21.4621 18.9933 21.8669 19.7175 22.5881C20.4428 23.3104 20.8505 24.2915 20.8515 25.3143C20.8525 26.3371 20.4477 27.3182 19.7245 28.0424C19.0012 28.7666 18.0201 29.1734 16.9973 29.1734C15.9775 29.1734 14.9993 28.7686 14.277 28.0494C13.5548 27.3291 13.1471 26.353 13.1432 25.3332Z" fill="#303030"/>
</svg>
