<svg width="16" height="20" viewBox="0 0 16 20" fill="none" xmlns="http://www.w3.org/2000/svg">
<path d="M7.99902 19.9962C7.96933 20.0013 7.93902 20.0013 7.90949 19.9962C7.75458 19.9547 7.6489 19.8118 7.65444 19.6516V12.2777H1.27956C1.15603 12.2781 1.04158 12.2124 0.979743 12.1054C0.918211 11.9988 0.918211 11.8674 0.979743 11.7608L7.69881 0.182982C7.77342 0.0426892 7.93417 -0.028534 8.08815 0.0106928C8.24306 0.0522272 8.34874 0.195134 8.3432 0.35527V7.72923H14.7181C14.8416 7.72877 14.9561 7.79445 15.0179 7.90152C15.0794 8.00812 15.0794 8.13949 15.0179 8.2461L8.29883 19.8274C8.23607 19.9333 8.12193 19.9976 7.99902 19.9964V19.9962ZM1.87932 11.5885H7.99902C8.09039 11.5885 8.17807 11.6248 8.24268 11.6894C8.30729 11.754 8.34359 11.8417 8.34359 11.9331V18.3733L14.1187 8.41839H7.99902C7.80873 8.41839 7.65444 8.26409 7.65444 8.07381V1.6371L1.87932 11.5885Z" fill="white"/>
</svg>
