<svg width="14" height="18" viewBox="0 0 14 18" fill="none" xmlns="http://www.w3.org/2000/svg">
<path d="M12.1023 13.1366C11.4559 12.7498 10.5351 12.446 9.41504 12.2631L10.9889 10.1789C11.9669 9.15858 12.5037 7.81913 12.5037 6.40477C12.5037 3.39734 10.0565 0.95 7.04897 0.95C4.04156 0.950125 1.5942 3.39547 1.5942 6.40477C1.5942 7.81717 2.13294 9.15848 3.11273 10.1789L4.68487 12.2632C3.56462 12.446 2.64338 12.7504 1.99645 13.1374C1.33524 13.533 0.95 14.022 0.95 14.564C0.95 14.9233 1.12488 15.2586 1.43346 15.5573C1.74179 15.8557 2.18628 16.1205 2.73404 16.341C3.82979 16.7821 5.34872 17.05 7.04897 17.05C8.74923 17.05 10.2682 16.7817 11.3639 16.3403C11.9117 16.1197 12.3561 15.8548 12.6645 15.5565C12.973 15.2579 13.1479 14.9229 13.1479 14.564C13.1479 14.0211 12.7632 13.532 12.1023 13.1366ZM3.55793 9.77697L3.558 9.7769L3.55587 9.77469C2.67654 8.86397 2.1936 7.66783 2.1936 6.40297C2.1936 3.72646 4.37256 1.54738 7.04919 1.54738C9.72582 1.54738 11.9048 3.72633 11.9048 6.40297C11.9048 7.66764 11.4218 8.86573 10.5443 9.77469L10.5441 9.77444L10.5404 9.77929L8.71918 12.1912L8.71917 12.1912L7.32053 14.0442L7.32051 14.0442L7.04946 14.4029L5.38153 12.1912L5.34161 12.2213L5.38152 12.1912L3.58055 9.80361L3.58062 9.80355L3.57866 9.80126L3.55793 9.77697ZM7.46897 14.8439L9.00828 12.8056C10.0436 12.9493 10.9309 13.2061 11.5597 13.5204C11.8771 13.679 12.1264 13.8512 12.2957 14.0291C12.465 14.2069 12.551 14.3868 12.551 14.5623C12.5501 14.77 12.4198 14.9929 12.1596 15.2133C11.9003 15.4329 11.5186 15.6438 11.0325 15.8275C10.0606 16.1946 8.67977 16.4491 7.04935 16.4491H7.04147L7.04138 16.4491C5.41437 16.4483 4.03639 16.194 3.06647 15.8275C2.58051 15.6438 2.19923 15.4329 1.94042 15.2133C1.6806 14.9929 1.55105 14.7699 1.55105 14.5622C1.55105 14.3867 1.63708 14.2068 1.80644 14.029C1.97575 13.8511 2.22511 13.6789 2.54262 13.5203C3.17158 13.2061 4.05941 12.9492 5.09568 12.8055L6.44309 14.5905L6.48299 14.5604L6.44309 14.5905L7.01115 15.3429L7.05099 15.3957L7.09091 15.343L7.46893 14.8439L7.46897 14.8439ZM7.04909 10.0421C9.05451 10.0421 10.6878 8.41067 10.6878 6.40524C10.6878 4.39979 9.05455 2.76649 7.04909 2.76649C5.0436 2.76649 3.41413 4.39799 3.41413 6.40335C3.41413 8.40883 5.04367 10.0421 7.04909 10.0421ZM7.04909 3.36725C8.72373 3.36725 10.0869 4.73042 10.0869 6.40505C10.0869 8.07965 8.72376 9.44102 7.04909 9.44102C5.3745 9.44102 4.01313 8.07789 4.01313 6.40322C4.01313 4.72859 5.37446 3.36725 7.04909 3.36725Z" fill="black" stroke="black" stroke-width="0.1"/>
</svg>
