<svg width="40" height="40" viewBox="0 0 40 40" fill="none" xmlns="http://www.w3.org/2000/svg">
<g filter="url(#filter0_b_401_2043)">
<circle cx="20" cy="20" r="20" fill="#25B6B8" fill-opacity="0.4"/>
</g>
<g filter="url(#filter1_b_401_2043)">
<circle cx="20" cy="20" r="14" fill="#25B6B8" fill-opacity="0.8"/>
</g>
<path d="M19.311 28.8857C18.3082 27.632 16.7424 25.6513 15.4201 23.5519C14.0828 21.4288 13 19.1858 13 17.4428C13 15.6637 13.7327 14.0527 14.917 12.887C16.1013 11.7212 17.7379 11 19.5453 11C21.3527 11 22.9893 11.7212 24.1736 12.8872C25.3582 14.053 26.0909 15.6639 26.0909 17.4427C26.0899 19.1872 25.0077 21.4296 23.6711 23.5518C22.3475 25.6534 20.7798 27.6361 19.7773 28.8894C19.6771 29.0151 19.4915 29.0368 19.3637 28.9382C19.3435 28.9224 19.3259 28.9051 19.311 28.8857ZM19.5453 13.5005C20.6512 13.5005 21.6529 13.9419 22.3776 14.6552C23.1022 15.3685 23.5507 16.3545 23.5507 17.4428C23.5507 18.5314 23.1022 19.5174 22.3776 20.2307C21.6529 20.944 20.6512 21.3855 19.5453 21.3855C18.4394 21.3855 17.4377 20.944 16.713 20.2307C15.9884 19.5174 15.5399 18.5314 15.5399 17.4428C15.5399 16.3544 15.9884 15.3685 16.713 14.6552C17.4377 13.9419 18.4394 13.5005 19.5453 13.5005ZM21.9605 15.0658C21.3427 14.4577 20.4884 14.0812 19.5453 14.0812C18.6022 14.0812 17.7479 14.4577 17.1302 15.0658C16.5124 15.6739 16.1298 16.5148 16.1298 17.4428C16.1298 18.3712 16.5124 19.2121 17.1302 19.8201C17.7479 20.4282 18.6022 20.8048 19.5453 20.8048C20.4884 20.8048 21.3427 20.4282 21.9605 19.8201C22.5782 19.2121 22.9608 18.3712 22.9608 17.4428C22.9608 16.5146 22.5782 15.6739 21.9605 15.0658ZM15.9202 23.248C17.1247 25.1603 18.5495 26.9909 19.5457 28.2414C20.5413 26.9912 21.9659 25.1606 23.1705 23.248C24.4587 21.2027 25.5018 19.0603 25.5018 17.4431C25.5007 15.8245 24.8339 14.3587 23.7563 13.2982C22.6789 12.2374 21.1897 11.5811 19.5451 11.5811C17.9006 11.5811 16.4117 12.2373 15.334 13.298C14.2563 14.3587 13.5898 15.8243 13.5898 17.4431C13.5898 19.062 14.6324 21.2036 15.9202 23.248Z" fill="white"/>
<defs>
<filter id="filter0_b_401_2043" x="-4" y="-4" width="48" height="48" filterUnits="userSpaceOnUse" color-interpolation-filters="sRGB">
<feFlood flood-opacity="0" result="BackgroundImageFix"/>
<feGaussianBlur in="BackgroundImage" stdDeviation="2"/>
<feComposite in2="SourceAlpha" operator="in" result="effect1_backgroundBlur_401_2043"/>
<feBlend mode="normal" in="SourceGraphic" in2="effect1_backgroundBlur_401_2043" result="shape"/>
</filter>
<filter id="filter1_b_401_2043" x="2" y="2" width="36" height="36" filterUnits="userSpaceOnUse" color-interpolation-filters="sRGB">
<feFlood flood-opacity="0" result="BackgroundImageFix"/>
<feGaussianBlur in="BackgroundImage" stdDeviation="2"/>
<feComposite in2="SourceAlpha" operator="in" result="effect1_backgroundBlur_401_2043"/>
<feBlend mode="normal" in="SourceGraphic" in2="effect1_backgroundBlur_401_2043" result="shape"/>
</filter>
</defs>
</svg>
