<svg width="17" height="16" viewBox="0 0 17 16" fill="none" xmlns="http://www.w3.org/2000/svg">
<path d="M15.9274 15C15.9274 15 13.2891 13.8337 11.4449 13.1519C10.2355 12.7013 10.4079 10.6612 11.108 9.89455C11.7138 9.30082 12.1766 8.5771 12.4615 7.77813C12.7464 6.97915 12.8458 6.12586 12.7523 5.28279C12.8039 4.73088 12.7378 4.17431 12.5583 3.64985C12.3789 3.12538 12.0902 2.64496 11.7114 2.24031C11.3325 1.83567 10.8721 1.51601 10.3606 1.30246C9.84909 1.08891 9.29807 0.986318 8.74397 1.00147C8.18962 0.986276 7.63836 1.08893 7.12664 1.30264C6.61492 1.51634 6.15439 1.83624 5.7755 2.24118C5.39661 2.64612 5.108 3.12687 4.92874 3.65165C4.74948 4.17643 4.68365 4.73329 4.73562 5.2854C4.64211 6.12847 4.74156 6.98177 5.02644 7.78074C5.31132 8.57971 5.77417 9.30343 6.37997 9.89716C7.08003 10.6638 7.25243 12.7039 6.043 13.1545C4.19882 13.8363 1.56055 15 1.56055 15" stroke="#303030" stroke-width="1.1" stroke-linecap="square" stroke-linejoin="round"/>
</svg>
