<svg width="15" height="14" viewBox="0 0 15 14" fill="none" xmlns="http://www.w3.org/2000/svg">
<path d="M13.6326 0.371151C13.4727 0.211652 13.2731 0.0975879 13.0545 0.0408665C12.8359 -0.0159871 12.6061 -0.0134609 12.3887 0.0480784L0.913699 3.45677C0.587383 3.55341 0.313069 3.7765 0.152019 4.07639C-0.00916316 4.37628 -0.0437794 4.7281 0.055863 5.05358C0.155385 5.37919 0.380855 5.65144 0.682186 5.80984L5.59307 8.41061L8.19384 13.3215C8.29997 13.5268 8.46067 13.6988 8.65828 13.8185C8.85588 13.9382 9.08281 14.001 9.31384 14H9.44845C9.6981 13.9747 9.93428 13.875 10.1263 13.7137C10.3184 13.5523 10.4575 13.3369 10.5254 13.0954L13.9556 1.61512C14.0172 1.39781 14.0197 1.168 13.9628 0.949352C13.9061 0.730716 13.7921 0.531188 13.6326 0.371215L13.6326 0.371151ZM0.542182 4.6091C0.554442 4.4603 0.612978 4.31895 0.709614 4.205C0.80613 4.09117 0.935822 4.01016 1.08067 3.97362L12.5179 0.565233C12.684 0.517875 12.8615 0.531217 13.0187 0.602975L5.74376 7.87761L0.929804 5.33069C0.799631 5.26386 0.69278 5.15917 0.623547 5.0302C0.554315 4.90135 0.525948 4.75447 0.542056 4.60914L0.542182 4.6091ZM13.4656 1.48595L10.0353 12.9231C9.981 13.1132 9.85263 13.2734 9.6792 13.3679C9.50564 13.4625 9.30144 13.4835 9.11223 13.4262C8.92316 13.3688 8.76487 13.238 8.67305 13.0632L6.12613 8.2492L13.4008 0.985027C13.4815 1.13888 13.5044 1.31651 13.4654 1.48587L13.4656 1.48595Z" fill="black"/>
</svg>
