<svg width="16" height="10" viewBox="0 0 16 10" fill="none" xmlns="http://www.w3.org/2000/svg">
<path d="M15.9695 4.79588C14.9926 1.97242 11.7156 0 8 0C4.28474 0 1.00748 1.972 0.0301334 4.79588L0 4.88329L0.0301334 4.97071C1.00735 7.79443 4.28443 9.76659 8 9.76659C11.7156 9.76659 14.9928 7.79459 15.9699 4.97071L16 4.88329L15.9695 4.79588ZM7.99968 9.23092C4.54805 9.23092 1.5089 7.44779 0.567578 4.88322C1.50868 2.31876 4.54837 0.535532 8 0.535532C11.4516 0.535532 14.4911 2.31866 15.4321 4.88322C14.491 7.44756 11.4516 9.23092 7.99968 9.23092ZM8.05796 1.94162C6.46599 1.94162 5.17074 3.23675 5.17074 4.82871C5.17074 6.42068 6.46599 7.71581 8.05796 7.71581C9.64992 7.71581 10.945 6.42068 10.945 4.82871C10.945 3.23675 9.64992 1.94162 8.05796 1.94162ZM8.05796 7.18027C6.7612 7.18027 5.7063 6.12547 5.7063 4.82871C5.7063 3.53196 6.76136 2.47715 8.05796 2.47715C9.35471 2.47715 10.4095 3.53222 10.4095 4.82871C10.4095 6.12534 9.35471 7.18027 8.05796 7.18027Z" fill="#303030"/>
</svg>
