<svg width="11" height="10" viewBox="0 0 11 10" fill="none" xmlns="http://www.w3.org/2000/svg">
<path d="M2.11573 9.99907C2.0646 9.99991 2.01575 9.97783 1.98239 9.93882C1.94914 9.89994 1.93498 9.84821 1.94374 9.7978L2.52703 6.3928L0.0528007 3.98398C0.00551113 3.93837 -0.0118924 3.86984 0.00827278 3.80731C0.0283162 3.74478 0.0823278 3.69917 0.147377 3.68969L3.57143 3.19243L5.10109 0.0952982C5.13026 0.0369689 5.18979 0 5.25508 0C5.32037 0 5.38002 0.0369659 5.40907 0.0952982L6.93874 3.19243L10.3576 3.68969C10.4225 3.69917 10.4765 3.74478 10.4965 3.80731C10.5167 3.86984 10.4994 3.93837 10.4521 3.98398L7.97791 6.3928L8.5612 9.79964C8.57188 9.86409 8.54524 9.92902 8.49231 9.96731C8.4395 10.0056 8.36952 10.0106 8.31168 9.98039L5.25412 8.3733L2.19656 9.98039C2.1716 9.99323 2.14381 9.99955 2.11573 9.99907Z" fill="#838282"/>
</svg>
