<svg width="19" height="14" viewBox="0 0 19 14" fill="none" xmlns="http://www.w3.org/2000/svg">
<path d="M17.9454 4.58845H17.2502V1.83964C17.2502 0.824213 16.4522 0 15.4711 0H2.66575C1.68464 0 0.886719 0.824213 0.886719 1.83964V12.1616C0.886719 13.1758 1.68464 14 2.66575 14H15.4718C16.4529 14 17.2509 13.1758 17.2509 12.1616V9.41282H17.9461C18.286 9.41282 18.5609 9.12744 18.5609 8.77738V5.22407C18.5603 4.87259 18.2855 4.58849 17.9456 4.58849L17.9454 4.58845ZM16.0207 12.1617C16.0207 12.4744 15.7748 12.7292 15.4711 12.7292H2.66575C2.36264 12.7292 2.11618 12.4751 2.11618 12.1617V1.83975C2.11618 1.52586 2.36207 1.27098 2.66575 1.27098H15.4718C15.7749 1.27098 16.0214 1.52515 16.0214 1.83975V4.58856H12.9981C12.017 4.58856 11.2191 5.41278 11.2191 6.4282V7.57383C11.2191 8.58799 12.017 9.41347 12.9981 9.41347H16.0214L16.0215 12.1617H16.0207ZM17.3307 8.14217H12.9974C12.695 8.14217 12.4478 7.88671 12.4478 7.5734V6.42834C12.4478 6.11446 12.6943 5.85958 12.9974 5.85958H17.3307V8.14217Z" fill="#303030"/>
<path d="M17.9454 4.58845H17.2502V1.83964C17.2502 0.824213 16.4522 0 15.4711 0H2.66575C1.68464 0 0.886719 0.824213 0.886719 1.83964V12.1616C0.886719 13.1758 1.68464 14 2.66575 14H15.4718C16.4529 14 17.2509 13.1758 17.2509 12.1616V9.41282H17.9461C18.286 9.41282 18.5609 9.12744 18.5609 8.77738V5.22407C18.5603 4.87259 18.2855 4.58849 17.9456 4.58849L17.9454 4.58845ZM16.0207 12.1617C16.0207 12.4744 15.7748 12.7292 15.4711 12.7292H2.66575C2.36264 12.7292 2.11618 12.4751 2.11618 12.1617V1.83975C2.11618 1.52586 2.36207 1.27098 2.66575 1.27098H15.4718C15.7749 1.27098 16.0214 1.52515 16.0214 1.83975V4.58856H12.9981C12.017 4.58856 11.2191 5.41278 11.2191 6.4282V7.57383C11.2191 8.58799 12.017 9.41347 12.9981 9.41347H16.0214L16.0215 12.1617H16.0207ZM17.3307 8.14217H12.9974C12.695 8.14217 12.4478 7.88671 12.4478 7.5734V6.42834C12.4478 6.11446 12.6943 5.85958 12.9974 5.85958H17.3307V8.14217Z" stroke="#303030"/>
</svg>
