<svg xmlns="http://www.w3.org/2000/svg" fill="none" viewBox="0 0 64 48"><path fill="currentColor" d="M4.8 4.5c2 0 3.8.2 5.5.5 1.8.4 3.3 1 4.7 1.8a9 9 0 0 1 3.2 3.4c.8 1.5 1.2 3.3 1.2 5.6a28.5 28.5 0 0 1-2.7 12 24.2 24.2 0 0 0 2.4-16c-.4-1.2-1-2.3-1.8-3.2a7 7 0 0 0-3-2.3c-1.1-.6-2.6-1.1-4.3-1.5A99315.6 99315.6 0 0 1 6 4a8 8 0 0 1 2.2-.3A14.1 14.1 0 0 1 15 5.6c1 .5 2 1.2 2.8 2 .8 1 1.4 2 1.7 3l-.5.2c.4.8.7 1.7.9 2.6.2.9.2 1.8.2 2.7A25.5 25.5 0 0 1 19 24c-.4 1.3-1 2.7-1.6 4a15 15 0 0 1-2.3 3.3 11 11 0 0 1-3 2.3 8 8 0 0 1-4.8.8l.1.3h1.1a8 8 0 0 0 3.8-.8 10 10 0 0 0 3-2.4c1-1 1.7-2 2.4-3.3a24.4 24.4 0 0 0 2.4-8l.3-3.9a17.5 17.5 0 0 0 0-2l.2 2.3a27.4 27.4 0 0 1-2.8 12 20 20 0 0 1-2.4 3.3c-1 1-2 1.6-3.3 2.2-1.2.6-2.5.9-4 .9-1.2 0-2.2-.3-3-.8A7 7 0 0 1 2.9 32a11 11 0 0 1-1.3-2.9 22.4 22.4 0 0 1-1.1-6.7l-.1-2.9A17.7 17.7 0 0 1 3.7 9c0 .2 0 .3.2.4a4.2 4.2 0 0 1 .6.2l.1.3-.2.5a43 43 0 0 0-1 2.4l.4.2a41.5 41.5 0 0 1 1-1.6l.8-.7.9-.2c.3 0 .6 0 .7.2v.7c0 .3 0 .8-.2 1.5a172.5 172.5 0 0 1-1 4.8 16.1 16.1 0 0 0-.2 3.8 66.2 66.2 0 0 0 .4 4.3l.5 2c.2.7.5 1.2.8 1.6.3.4.6.6 1 .6.8 0 1.5-.2 2.2-.7.6-.5 1.2-1.2 1.7-2s1-1.7 1.4-2.7a32.5 32.5 0 0 0 1.7-8c0-1.2 0-2.1-.2-3-.1-.7-.3-1.5-.7-2-.4-.7-.9-1.2-1.6-1.6-.7-.4-1.6-.7-2.7-.8L9.5 9a30.5 30.5 0 0 1-2.6-.5c-.3-.2-.5-.3-.5-.5l.1-.3a15.5 15.5 0 0 1 3.3.4 16.8 16.8 0 0 1 2 .5 18 18 0 0 0-5.2-1l-.1-.8h-.3c-.4 0-1 .1-1.4.3a4 4 0 0 1-1.4.3L3 7.2a.4.4 0 0 1-.1-.4c0-.2 0-.4.2-.6l.5-.7a6 6 0 0 1 1.2-1ZM16 20.1a25.3 25.3 0 0 0 .8-4.6c0-.8-.2-1.5-.4-2.2l-1-2a13 13 0 0 1 1 4.8 18 18 0 0 1-.4 4Zm5.7 10.6h1.5c.7.6 1.5 1 2.4 1.1a14.3 14.3 0 0 0 5.3 0l3.4-.8c1-.5 2-1 2.8-1.6.8-.6 1.2-1.4 1.2-2.2 0-.6-.2-1.3-.7-2l-1.5-1.8c-.6-.7-1.3-1.2-2-1.8a14.2 14.2 0 0 1 3.4 3.8c.4.6.6 1.3.6 2s-.4 1.4-1.2 2c-.7.6-1.6 1-2.6 1.4a19 19 0 0 1-5.5 1c-.9 0-1.7 0-2.6-.2a6 6 0 0 1-2.4-.9h3.5a40.7 40.7 0 0 0 4.2-.1c.8-.1 1.6-.4 2.4-.8l.9.2 1.6-1.2c.6-.5.9-1 .9-1.8 0-.6-.4-1.3-1-2-.7-1-1.5-1.7-2.3-2.5a39.5 39.5 0 0 0-4.7-3.8l.5-2.9 1.2-.4a112.8 112.8 0 0 1 3-.8 2 2 0 0 0 1-1l-.2-.1-.8.4a41 41 0 0 0-4.4 1.5l-.1.2L29 19l2.1 1.8a50 50 0 0 1 5 4.3c.7.7 1 1.4 1 2 0 .2 0 .4-.3.7a4 4 0 0 1-.6.6l.5-.6.3-.7c0-.7-.4-1.4-1.1-2.1l-2.4-2.3-2.8-2-1.9-1.6.2-1.5v-1.3c.1 0 .2-.2.2-.5v-.6l2.7-1 2.3-.9a7 7 0 0 0 1.9-1.5c.5-.6 1.1-1.5 1.6-2.7a3 3 0 0 0-1.4-2.5 7 7 0 0 0-3.8-1l-1.6.3-1.6.5a31.5 31.5 0 0 0-3.1 1.1 1 1 0 0 0-.4-.6l-.2-.7c0-.2.2-.4.4-.5l.8-.4a14.1 14.1 0 0 1 1.7-.4l-.2-.7-1.2.2a27.6 27.6 0 0 1-3.3 0c-.5-.2-.7-.4-.7-.8 0-.5.4-1 1.3-1.3A25.5 25.5 0 0 1 33 .2a12.1 12.1 0 0 1 10 5.3c.8 1 1.1 2.2 1.1 3.5v.2c0 1-.3 2-.9 2.8a11 11 0 0 1-1.9 2.3 23 23 0 0 1-4.8 3c1 .6 1.8 1.2 2.6 2A11.5 11.5 0 0 1 43 27c0 2-.6 3.6-1.6 4.8a10 10 0 0 1-4 3c-1.6.7-3.3 1.2-5.1 1.5a33.4 33.4 0 0 1-6.2.3 10.3 10.3 0 0 1-3.2-.7c-.4-.3-.6-.5-.6-.8l.1-.3a17 17 0 0 0 9.6.6 23.5 23.5 0 0 0 0-.1c-1.2.2-2.4.3-3.7.3-2 0-3.8-.3-5.6-1l.4-.5a5 5 0 0 1-.7-.5l-.9-.6-.6-.7c-.2-.3-.3-.5-.3-.8 0-.3.2-.5.4-.6l.7-.2Zm18.8.3a6 6 0 0 0 1.3-4 7 7 0 0 0-.9-3.6c-.6-1-1.4-2-2.2-2.9.9 1 1.6 2.1 2.1 3.3a9 9 0 0 1 .8 4 4 4 0 0 1-.4 1.8L40 31.2a10.4 10.4 0 0 1-2.6 2.2c1.2-.7 2.2-1.5 3-2.4Zm-3.1 2.5h-.1ZM49.2 6.7c1.8 0 3.5.2 5.1.5 1.6.3 3 .8 4.3 1.6 1.2.8 2.2 1.9 3 3.2.7 1.3 1 3 1 5s-.2 4-.6 6c-.4 1.8-1 3.5-1.9 5.2a22.2 22.2 0 0 0 2.2-14.7A7.7 7.7 0 0 0 58 8.4c-1-.6-2.4-1-4-1.4a55479.1 55479.1 0 0 0-3.7-.6 7 7 0 0 1 2-.3 13 13 0 0 1 6.3 1.6 7 7 0 0 1 2.5 2 7 7 0 0 1 1.7 2.6l-.5.2c.4.7.6 1.5.8 2.4.2.8.2 1.6.2 2.5a23.5 23.5 0 0 1-1 7.1c-.4 1.3-.9 2.5-1.5 3.7-.6 1.1-1.3 2.2-2.1 3-.8 1-1.7 1.7-2.8 2.2a7.3 7.3 0 0 1-4.4.8l.1.2h1c1.3 0 2.5-.2 3.5-.8 1.1-.5 2-1.2 2.8-2.1.9-1 1.6-2 2.2-3a22.4 22.4 0 0 0 2.2-7.5l.3-3.5a16 16 0 0 0 0-1.8l.2 2a25.2 25.2 0 0 1-2.7 11c-.6 1.2-1.3 2.2-2.2 3.1a10 10 0 0 1-3 2c-1 .6-2.3.8-3.7.8-1 0-2-.2-2.7-.7a6.4 6.4 0 0 1-2-1.9 11 11 0 0 1-1.2-2.6 20.6 20.6 0 0 1-1-6.2l-.1-2.7a16.3 16.3 0 0 1 3-9.7c0 .1 0 .3.2.3a3.8 3.8 0 0 1 .5.2l.1.2-.1.6a39.6 39.6 0 0 0-1 2.2h.4a38.4 38.4 0 0 1 1-1.4l.7-.6.8-.2c.3 0 .5 0 .6.2l.1.6c0 .4 0 .8-.2 1.4a158 158 0 0 1-1 4.4 14.8 14.8 0 0 0-.2 3.6 60.6 60.6 0 0 0 .4 3.9L51 28l.7 1.4c.3.4.6.6 1 .6.7 0 1.3-.2 2-.7.5-.5 1-1 1.5-1.8.5-.7 1-1.6 1.3-2.5a29.9 29.9 0 0 0 1.6-7.4c0-1 0-1.9-.2-2.6a5 5 0 0 0-.7-2c-.3-.6-.8-1-1.4-1.4-.7-.4-1.5-.6-2.5-.8l-.8-.1a28.1 28.1 0 0 1-2.3-.5l-.5-.4v-.3a14.3 14.3 0 0 1 3.1.4 15.5 15.5 0 0 1 1.8.4 16.6 16.6 0 0 0-4.7-1l-.1-.6h-.2c-.5 0-1 0-1.4.2-.4.2-.8.2-1.3.2h-.3a.4.4 0 0 1-.2-.4l.2-.6.5-.6a5.6 5.6 0 0 1 1.1-.9Zm10.3 14.4a23.2 23.2 0 0 0 .7-4.3c0-.7-.1-1.4-.3-2l-.8-1.9a14.2 14.2 0 0 1 .4 8.1ZM21.8 47.2H21v-6h.7v6Zm5.7-4.3c.5 0 1 0 1.2.3.2.2.4.6.4 1.1v3h-.6v-.7h-.1l-.4.4-.5.2a2.2 2.2 0 0 1-1.3 0 1 1 0 0 1-.4-.4c-.2-.2-.2-.5-.2-.8 0-.4.1-.7.5-1a3 3 0 0 1 1.5-.3h.8v-.3c0-.4-.1-.6-.3-.8a1 1 0 0 0-.6-.2 2 2 0 0 0-.7.1c-.2 0-.4.2-.5.3l-.2-.6a3.1 3.1 0 0 1 1.4-.3Zm.2 2.2c-.5 0-.9.2-1 .3-.3.2-.4.4-.4.6 0 .3 0 .5.2.6l.6.1c.4 0 .7 0 .9-.3.2-.2.4-.5.4-.9v-.4h-.7Zm6.1-2.5a7.8 7.8 0 0 1 0 .9l.5-.5.9-.1c.5 0 1 .1 1.3.5.3.4.4 1 .4 1.7 0 .5 0 .9-.2 1.2-.1.3-.3.6-.6.8l-1 .2c-.3 0-.5 0-.8-.2l-.5-.4-.2.5h-.5v-6h.7v1.4Zm1.2.8-.7.2a1 1 0 0 0-.4.5v1c0 .5 0 1 .2 1.2.2.3.5.4 1 .4.3 0 .6-.1.8-.4.2-.3.3-.7.3-1.2 0-.6 0-1-.3-1.3-.2-.2-.5-.4-.9-.4Zm8.6 2.6c0 .3 0 .6-.2.7a1 1 0 0 1-.6.5l-1 .1h-.7l-.6-.3v-.6l.7.2.7.1.8-.1a.6.6 0 0 0 .1-.8s-.1-.2-.3-.2l-.6-.3-.8-.4c-.2 0-.3-.2-.4-.3a1 1 0 0 1-.2-.6c0-.4.2-.7.5-.9a2 2 0 0 1 1.1-.3 3.2 3.2 0 0 1 1.4.3l-.2.6-.4-.1a2.5 2.5 0 0 0-.8-.2c-.3 0-.5 0-.7.2l-.2.3.1.3.4.3a14.7 14.7 0 0 0 1.3.6c.2 0 .4.2.5.4l.1.5Z"/></svg>