<svg xmlns="http://www.w3.org/2000/svg" baseProfile="tiny" data-name="Layer 1" version="1.2" viewBox="0 0 1080 299.4"><path fill="currentColor" d="M66.8 25.7H27.3v22.9h37.6v23H27.3v26.2h39.5v23H0V2.7h66.8v23Zm54.5 32.5L84.6 2.7h32.8l19.5 33.7 19.5-33.7h32.8l-36.7 55.5 43.4 62.8h-32.8l-26.2-41-26.2 41H77.9l43.4-62.8ZM256.1 2.7a44 44 0 0 1 31 9.8 36.4 36.4 0 0 1 11.5 28.7A38 38 0 0 1 288.5 69c-9.4 9.6-21.8 10.5-30.1 10.5h-16.7V121h-27.3V2.7h41.7Zm-14.4 54.4h9.8c3.7 0 10.3-.2 14.7-4.4 2.5-2.5 4.4-6.6 4.4-11.7s-1.8-9-4.4-11.5c-4.1-3.9-9.9-4.4-15.2-4.4h-9.2v32.1Zm140.6 41.5h-44.7l-9 22.3h-28.4L347.9 2.7h25l46.6 118.2h-28.4l-8.9-22.3Zm-7.4-21-14.5-39.7-14.7 39.7h29.2Zm69.4 43.3V2.7h23.8l64.2 76.2V2.7h27.3v118.2h-23.8l-64.2-76.6v76.6h-27.3Zm217.4-89.3c-8.9-8-16.5-8.5-19.9-8.5s-8.3.5-11.5 4.1c-1.8 1.8-3 4.4-3 7.4s.9 5 2.7 6.6c2.8 2.7 6.9 3.7 14.9 6.7l8.9 3.4a47.2 47.2 0 0 1 16.1 9 29.7 29.7 0 0 1 8.7 22c0 12.2-4.3 22.9-10.5 29.3-10.5 11-25.7 12.1-33.5 12.1s-16-1.2-23.4-5c-6-3-12.9-8.5-17.4-12.9L608 86.3c3 3 7.8 7.1 11 9 4.6 2.8 9.4 4.3 14.9 4.3s8.5-.7 12.4-4.1c2.3-2 4.3-5.1 4.3-9.6s-1.6-6.4-4.1-8.5c-3.2-2.7-10.5-5.3-13.8-6.6l-9.8-3.4a40 40 0 0 1-16.5-9.4 29.2 29.2 0 0 1-7.1-20.6c0-10.5 3.2-19.3 10.3-26.6A38 38 0 0 1 638.8 0c11 0 21.3 1.4 35.1 11.7l-12.2 19.9Zm83.4-28.9v118.2h-27.3V2.7h27.3Zm154.1 14.5c11.2 10.8 18.4 26.4 18.4 44.7s-5.7 31.9-18.4 44.3c-11 10.6-25.9 17.4-45.7 17.4s-37.2-8.9-46.1-17.4c-11.3-10.6-18.4-26.6-18.4-44s7.6-34.2 18.3-44.9C815.2 9.4 829.9 0 853.5 0s33.9 5.7 45.7 17.2Zm-71.8 18.1c-5.1 5-10.5 13.6-10.5 26.8s3.5 19.5 10.8 26.6c7.6 7.3 16.1 9.8 25.4 9.8s20.6-4.4 26.2-10.1c4.6-4.4 10.3-12.8 10.3-26.4s-5-21.3-10.3-26.6c-5.8-5.7-15.2-10.1-26.1-10.1s-19.5 3.7-25.9 10.1Zm137.4 85.6V2.7h23.8l64.2 76.2V2.7h27.3v118.2h-23.8l-64.2-76.6v76.6h-27.3Zm-219.7 60.2v95.2h36.7v23h-64V181.1h27.3ZM911.7 277H867l-9 22.3h-28.4l47.7-118.2h25l46.6 118.2h-28.4l-8.9-22.3Zm-7.5-20.9-14.5-39.7-14.7 39.7h29.2Zm125.8-75c6.4 0 20.9.4 30.1 9 7.6 7.3 8.5 17.2 8.5 22.3s-.7 9.9-3.9 15.1a22 22 0 0 1-9.9 8.7c5.7.9 12.1 3.7 16.3 8 3.9 3.9 7.6 10.6 7.6 21.1s-4.6 19.3-9.2 23.9c-9.7 9.4-23.9 10.1-31.2 10.1h-44.5V181.1h36.2Zm-9.2 48.1h4.4c3.7 0 9.9-.5 13.8-3.4 2.5-1.8 4.8-5.3 4.8-10.5s-2.5-8.3-4.6-9.9c-3.9-3-9.2-3-14.2-3h-4.3v26.8Zm0 48.9h6.6c6.9 0 15.2-.2 20.2-4.8 2.5-2.3 3.9-5.7 3.9-9.9s-2-8-3.7-9.6c-4.8-4.4-14-4.4-19.5-4.4h-7.4v28.7ZM0 275.7h40.6v22.9H0zm63.8 0H145v22.9H63.8zm104.4 0h162.4v22.9H168.2zm185.6 0h324.7v22.9H353.8z"/></svg>