<svg xmlns="http://www.w3.org/2000/svg" fill="none" viewBox="0 0 100 100"><path fill="#fff" d="m6 4.3 55.4-4C68-.5 69.8 0 74.2 3l17.6 12.5c3 2.1 4 2.7 4 5V89c0 4.3-1.6 6.8-7 7.2L24.4 100c-4.1.2-6-.4-8.2-3.1l-13-17A13.1 13.1 0 0 1 0 71.8V11c0-3.5 1.6-6.4 6-6.8z"/><path fill="#000" fill-rule="evenodd" d="M61.4.2 6 4.3c-4.4.4-6 3.3-6 6.8v60.7c0 2.7 1 5 3.3 8.1l13 17c2.1 2.7 4 3.3 8.2 3l64.2-3.8c5.5-.4 7-3 7-7.2V20.6c0-2.2-.9-2.8-3.4-4.7L74.2 3.1c-4.3-3-6-3.5-12.9-2.9zM25.9 19.5c-5.2.4-6.4.5-9.4-2l-7.6-6c-.7-.8-.4-1.7 1.6-2l53.2-3.8a11 11 0 0 1 8.5 2.5l9.1 6.6c.4.2 1.4 1.4.2 1.4l-54.9 3.3h-.7zm-6.1 68.8v-58c0-2.5.8-3.6 3.1-3.8L86 22.8c2.1-.2 3.1 1.1 3.1 3.7V84c0 2.5-.4 4.7-3.9 4.9l-60.4 3.5c-3.4.2-5-1-5-4.1zm59.6-54.8c.4 1.7 0 3.5-1.7 3.7l-3 .5v42.8a15.1 15.1 0 0 1-6.8 2.2c-3 0-3.8-1-6.2-4l-19-29.9v29l6 1.4s0 3.5-4.8 3.5l-13.4.7c-.4-.7 0-2.7 1.3-3l3.5-1V41l-4.8-.4c-.4-1.8.6-4.3 3.3-4.5l14.3-1L68 65.6V38.7l-5-.6c-.4-2.1 1.2-3.7 3.1-3.8l13.4-.8z" clip-rule="evenodd"/></svg>