<?xml version="1.0" encoding="utf-8"?>
<!-- Generator: Adobe Illustrator 28.1.0, SVG Export Plug-In . SVG Version: 6.00 Build 0)  -->
<svg version="1.1" id="Layer_1" xmlns="http://www.w3.org/2000/svg" xmlns:xlink="http://www.w3.org/1999/xlink" x="0px" y="0px"
	 viewBox="0 0 1080 1080" style="enable-background:new 0 0 1080 1080;" xml:space="preserve">
<style type="text/css">
	.st0{clip-path:url(#SVGID_00000069400083424833178420000005641377788085519793_);}
	.st1{stroke:#000000;stroke-width:6;stroke-miterlimit:10;}
</style>
<g>
	<defs>
		<rect id="SVGID_1_" width="1080" height="1080"/>
	</defs>
	<clipPath id="SVGID_00000116941297719806242290000004655376481502661822_">
		<use xlink:href="#SVGID_1_"  style="overflow:visible;"/>
	</clipPath>
	<g style="clip-path:url(#SVGID_00000116941297719806242290000004655376481502661822_);">
		<path d="M836.63,454.33c0,46.4-0.06,92.81,0.03,139.21c0.05,23.82-10.47,41.49-30.88,53.21
			c-60.32,34.63-120.76,69.06-181.11,103.64c-16,9.17-31.7,18.87-47.8,27.86c-22.37,12.49-44.25,9.99-65.99-2.49
			c-70.06-40.23-140.26-80.22-210.42-120.27c-7.78-4.44-15.97-8.23-23.41-13.17c-16.19-10.77-24.92-26.34-24.96-45.69
			c-0.21-94.39-0.12-188.78,0.12-283.17c0.06-22.4,10.49-39.18,29.96-50.34c57.12-32.75,114.21-65.57,171.36-98.28
			c22.08-12.64,43.97-25.67,66.53-37.41c17.51-9.11,36.26-8.7,53.82,0.04c16.31,8.12,31.83,17.82,47.61,27
			c60.71,35.31,121.3,70.83,182.11,105.97c21.88,12.64,33.18,30.55,32.91,56.27c-0.48,45.87-0.13,91.75-0.13,137.63
			C836.48,454.33,836.55,454.33,836.63,454.33z M811.04,453.64c0.01,0,0.03,0,0.04,0c0-44.82-0.04-89.64,0.02-134.46
			c0.02-16.98-7.35-29.72-21.85-38.25C748.38,256.9,707.4,233.05,666.54,209c-31.18-18.35-62.28-36.82-93.33-55.39
			c-16.89-10.1-33.79-10.71-50.89-0.87c-22.37,12.88-44.69,25.86-67.01,38.83c-50.72,29.47-101.29,59.2-152.23,88.29
			c-17.15,9.79-25.59,23.4-25.53,43.13c0.25,87.71,0.3,175.41,0.21,263.12c-0.02,18.92,7.81,32.57,24.57,41.42
			c15.05,7.95,30.01,16.1,44.8,24.54c59.17,33.76,118.29,67.59,177.34,101.57c14.38,8.27,28.51,8.86,42.94,0.6
			c12.35-7.07,24.67-14.18,37.02-21.26c60.31-34.56,120.49-69.36,181.04-103.5c17.88-10.08,25.97-24.13,25.74-44.53
			C810.7,541.18,811.04,497.41,811.04,453.64z"/>
		<path d="M245.69,869.93c8.94-14.21,17.6-28.03,26.32-41.8c3.81-6.02,8.55-8.08,14.08-6.32c5.25,1.67,7.4,5.62,7.38,12.99
			c-0.04,21.96,0.02,43.91,0.01,65.87c0,6.57-3.57,10.42-9.71,10.62c-6.06,0.2-9.18-2.62-9.22-8.75
			c-0.07-10.19,0.08-20.37,0.07-30.56c0-2.56-0.25-5.13-1.49-8.12c-1.94,2.55-3.99,5.03-5.81,7.67c-4.77,6.94-9.3,14.06-14.2,20.91
			c-3.4,4.76-10.77,4.81-14.24,0.07c-6-8.21-11.7-16.65-17.55-24.99c-0.89-1.26-1.88-2.45-3.77-4.92c-0.26,3.02-0.53,4.76-0.53,6.49
			c-0.01,10.71,0.08,21.43,0.07,32.14c-0.01,6.61-3.32,10.18-9.29,10.2c-5.98,0.02-10-4.04-10.01-10.43
			c-0.05-22.31-0.06-44.61,0.01-66.92c0.02-6.72,2.77-10.87,7.8-12.35c5.58-1.64,10.56,0.55,14.12,6.31
			c7.75,12.54,15.46,25.1,23.2,37.65C243.72,866.98,244.59,868.25,245.69,869.93z"/>
		<path d="M442.33,868.16c9.97,6.32,13.3,14.93,10.23,25.53c-2.74,9.47-11.56,16.3-21.48,16.39c-11.94,0.11-23.89,0.09-35.83,0.05
			c-5.58-0.02-7.44-1.77-7.44-7.1c-0.01-27.57-0.03-55.15,0.11-82.72c0.04-8.7,6.84-13.02,14.19-8.91c2.13,1.19,3.33,4.13,4.76,6.39
			c0.41,0.64,0.14,1.72,0.17,2.59c0.32,12.35,0.32,12.35,12.49,12.37c2.28,0,4.57,0.07,6.85,0.04c9.81-0.12,17.01,4.38,21.09,13.05
			C451.33,854.08,449.06,861.57,442.33,868.16z M407.43,892.71c6.97,0,13.28,0.13,19.58-0.04c4.6-0.12,7.27-3.12,7.54-7.33
			c0.29-4.48-2.85-7.4-7.08-7.71c-6.58-0.48-13.22-0.13-20.04-0.13C407.43,882.69,407.43,887.34,407.43,892.71z M407.57,849.74
			c0,4.25,0,7.98,0,12.21c5.75,0,11.13-0.05,16.52,0.02c4.24,0.05,6.67-2.71,6.08-6.13c-0.4-2.3-3.56-5.44-5.87-5.83
			C419.03,849.14,413.53,849.74,407.57,849.74z"/>
		<path d="M655.06,861.07c5.69-6.83,11.38-13.65,17.07-20.48c3.02-3.62,6.48-7.09,11.52-5.94c2.95,0.67,6.46,2.59,7.9,5.02
			c1.03,1.74-0.16,5.89-1.73,7.88c-5.97,7.55-12.5,14.66-19.12,22.29c5.28,6.27,10.36,12.29,15.41,18.33
			c2.82,3.37,6.04,6.51,8.2,10.26c1.27,2.22,2.07,6.38,0.86,7.96c-1.83,2.38-5.75,4.7-8.51,4.41c-3.6-0.38-7.73-2.59-10.22-5.31
			c-6.72-7.38-12.7-15.44-19.95-24.45c-1.08,2.63-2.49,4.66-2.67,6.79c-0.4,4.54-0.05,9.13-0.22,13.7
			c-0.23,6.35-3.66,9.89-9.27,9.83c-5.86-0.07-9.64-3.87-9.63-10.14c0.03-27.41,0.13-54.83,0.29-82.24
			c0.04-6.05,3.15-8.78,9.37-8.69c6.14,0.08,8.99,2.83,9.05,9.04c0.12,11.95,0.11,23.9,0.18,35.85c0.01,1.83,0.16,3.67,0.24,5.5
			C654.23,860.8,654.65,860.93,655.06,861.07z"/>
		<path d="M585.8,911.28c-20.59,0.33-38.43-16.71-38.79-37.06c-0.4-22.51,16.9-39.92,39.85-40.1c20.17-0.16,37.45,17.64,37.81,38.92
			C625.02,893.89,607.69,910.93,585.8,911.28z M585.88,892.97c10.66-0.03,19.93-9.41,19.77-19.99
			c-0.17-11.24-9.35-20.73-19.86-20.54c-10.48,0.19-19.84,9.66-19.87,20.11C565.9,883.44,575.24,893,585.88,892.97z"/>
		<path d="M499.44,911.24c-21.1-0.29-37.95-17.2-37.77-37.91c0.19-22.21,18.01-39.42,40.42-39.03c20.1,0.35,37.45,18.94,37.1,39.73
			C538.82,895.16,521.32,911.54,499.44,911.24z M480.75,873.08c-0.13,10.56,9.09,20.04,19.5,20.02c10.63-0.01,20.05-9.46,20.16-20.2
			c0.11-10.29-9.58-20.44-19.47-20.39C489.88,852.56,480.9,861.71,480.75,873.08z"/>
		<path d="M339.56,874.78c5.17-11.54,9.78-21.95,14.51-32.31c1.81-3.96,4.21-7.11,9.3-7.33c6.4-0.27,12.32,6.81,9.12,13.32
			c-10.93,22.19-21.02,44.8-32.07,66.92c-2.7,5.41-7.3,10.31-12.09,14.08c-2.89,2.27-7.86,2.64-11.86,2.55
			c-4.92-0.11-8.15-4.3-8.4-9.14c-0.28-5.41,1.95-8.66,7.03-10.28c10.86-3.45,15.67-14.57,10.59-24.62
			c-6.42-12.68-12.96-25.29-19.35-37.98c-3.4-6.76-2.47-11.84,2.37-14.18c5.38-2.62,12.1-0.22,15.05,5.78
			C329.01,852.28,334.01,863.09,339.56,874.78z"/>
		<path d="M830.35,873.59c0.13-21.57,17.53-38.63,39.1-38.34c18.08,0.24,36.88,17.91,36.4,37.87c-0.53,21.63-17.6,37.75-37.86,38.13
			C846.85,911.65,830.23,894.66,830.35,873.59z M867.19,895.8c11.91,0.45,22.66-9.77,23.03-21.89c0.37-12.34-9.91-23.39-21.99-23.63
			c-11.67-0.23-22.32,10.55-22.76,23.03C845.06,885.15,854.9,895.33,867.19,895.8z"/>
		<path d="M803.62,874.86c0-9.47-0.11-18.95,0.04-28.42c0.09-6.11,2.39-8.38,7.69-8.25c5.21,0.13,7.3,2.55,7.31,8.63
			c0.02,18.6,0.04,37.19,0,55.79c-0.01,5.57-2.24,8.22-7,8.62c-4.91,0.42-7.71-1.93-7.76-6.9c-0.11-9.82-0.03-19.65-0.03-29.47
			C803.79,874.86,803.71,874.86,803.62,874.86z"/>
		<path d="M778.7,911.42c-5.83,0.09-9.64-3.83-9.64-9.93c0-5.38,4.13-9.67,9.47-9.82c5.3-0.15,10.31,4.63,10.31,9.83
			C788.84,906.84,784.24,911.33,778.7,911.42z"/>
		<path d="M819.97,822.79c0.08,5.12-4.43,9.42-9.88,9.43c-4.95,0.01-8.45-3.61-8.41-8.68c0.05-5.69,3.62-9.45,8.97-9.45
			C815.62,814.09,819.9,818.08,819.97,822.79z"/>
		<path d="M301.72,475.82h22.78c0,2.53,0,4.77,0,7.01c-0.04,29.18,0.29,58.36-0.3,87.53c-0.25,12.26,4.47,20.1,15.08,25.84
			c27.94,15.09,55.64,30.62,83.37,46.1c21.3,11.89,42.49,23.99,63.74,35.97c8.55,4.82,17.13,9.56,26.32,13.85
			c-0.56-0.77-1.12-1.53-1.09-1.49c2.79-2.29,5.51-4.79,8.51-6.91c3.19-2.25,6.64-4.13,9.72-6.02c-9.15-5.4-19.52-11.68-30.06-17.65
			c-3.16-1.79-4.33-3.84-4.29-7.51c0.28-23.37,0.15-46.75,0.56-70.12c0.08-4.61-1.59-6.9-5.31-8.97
			c-19.03-10.57-37.96-21.33-56.92-32.03c-1.77-1-3.52-2.06-6.68-3.91c5.76-3.23,10.7-5.39,14.92-8.53
			c4.68-3.47,8.59-3.37,13.14-0.04c6.46,4.72,13.14,9.13,19.74,13.67c4.81,3.31,9.88,3.67,14.81,0.57
			c4.55-2.87,7.29-7.52,5.53-12.56c-1.45-4.15-4.39-8.61-7.96-11.01c-9.01-6.05-18.72-11.06-28.22-16.38
			c-2.75-1.54-3.8-3.51-3.79-6.75c0.09-44.46,0.07-88.93-0.04-133.39c-0.01-4.68,1.61-6.84,8.21-9.26
			c26.57-9.74,51.06-24.28,73.1-42.02c5.77-4.65,8.83-5.21,13.27-2.64c26.89,15.61,53.88,31.04,80.72,46.73
			c1.77,1.03,3.22,3.55,3.23,5.6c0.28,44.82,0.31,89.64,0.52,134.45c0.02,3.64-1.15,5.66-4.37,7.39
			c-9.28,4.98-18.41,10.26-27.51,15.58c-7.38,4.32-10.8,13.29-7.52,19.16c4.44,7.96,13.37,9.3,21.22,3.69
			c7.25-5.18,14.84-9.91,22.41-14.63c1.26-0.79,3.57-1.23,4.75-0.6c6.19,3.27,12.16,6.93,19.33,11.1
			c-7.2,4.25-13.44,8.03-19.77,11.64c-14.18,8.08-28.37,16.17-42.67,24.03c-3.22,1.77-4.27,3.9-4.24,7.48
			c0.17,24.08,0.03,48.16,0.27,72.23c0.04,4.23-1.43,6.56-5.16,8.02c-1.78,0.7-3.37,1.91-5.14,2.64c-3.68,1.52-5.24,3.17-3.75,7.86
			c1.14,3.59-0.38,8.03-0.71,11.93c-1.02,5.91-6.46-1.06-3.8-0.5c4.77-7.5,4.25-2.72,2.78,6.4c0.34,0.64,0.68,1.28,1.02,1.91
			c5.4-2.81,10.88-5.49,16.19-8.46c13.15-7.35,26.21-14.86,39.33-22.26c38.82-21.89,77.63-43.82,116.52-65.58
			c7.69-4.3,10.51-10.69,10.47-19.12c-0.13-30.41-0.11-60.81-0.14-91.22c0-2.78,0-5.56,0-8.75h22.33c0.16,0.45,0.47,0.93,0.47,1.4
			c0.04,35.68,0.1,71.36,0.05,107.03c-0.01,11.13-5.02,19.48-14.7,25.01c-22.25,12.72-44.49,25.46-66.76,38.14
			c-47.91,27.27-95.84,54.51-143.77,81.75c-1.99,1.13-4.03,2.15-6,3.31c-6.45,3.81-12.53,3.82-19.28-0.07
			c-36.67-21.14-73.45-42.07-110.3-62.89c-35.46-20.04-70.99-39.95-106.61-59.72c-11.87-6.59-17.91-15.94-17.78-29.78
			c0.32-32.86,0.16-65.73,0.2-98.6C301.72,479.74,301.72,478.01,301.72,475.82z M558.89,527.12c0-16.72,0.17-32.52-0.12-48.32
			c-0.08-4.14,1.36-5.77,5.09-6.98c13.21-4.3,24.36-11.72,32.2-23.39c14.29-21.27,13.84-51.29-0.87-70.82
			c-16.94-22.5-44.32-31.7-70.22-22.8c-23.34,8.02-38.37,24.31-41.71,48.97c-3.48,25.71,4.85,47.21,27.82,61.32
			c5.93,3.65,12.52,6.23,19.4,9.6c0,1.08,0,2.82,0,4.56c0.01,31.27,0,62.55,0.02,93.82c0.02,24.25,0.06,48.49,0.11,72.74
			c0.02,10.26,5.86,17.31,14.34,17.43c8.61,0.12,13.88-6.43,13.97-17.41c0.02-1.89,0-3.79,0-6.38c4.68,0,8.86,0.17,13.01-0.04
			c7.06-0.34,10.72-4.93,10.62-12.94c-0.1-7.9-4-12.54-10.87-12.8c-3.16-0.12-6.35,0.17-9.47-0.18c-1.14-0.13-3.02-1.52-3.07-2.41
			c-0.28-5.52-0.14-11.07-0.14-16.92c4.43,0,8.09,0.04,11.75-0.01c7.41-0.1,12.4-4.71,12.4-11.4c-0.01-7.01-4.96-11.69-12.58-11.82
			c-3.77-0.06-7.55-0.01-11.12-0.01V551.9c4.32,0,8.17,0.07,12.02-0.01c7.02-0.14,10.85-4.39,10.92-11.98
			c0.07-7.83-3.9-12.58-10.81-12.77C567.58,527.03,563.58,527.12,558.89,527.12z"/>
		<path d="M394.81,548.42c2.39,0.68,3.54,0.78,4.47,1.29c23.1,12.65,46.17,25.37,69.29,37.98c3.1,1.69,4.35,3.76,4.32,7.46
			c-0.12,14.93,0.16,29.87,0.26,44.8c0.01,0.83-0.28,1.66-0.56,3.27c-6.49-3.47-12.63-6.65-18.67-9.99
			c-26.43-14.62-52.85-29.26-79.23-43.97c-7.2-4.02-14.16-8.48-21.41-12.4c-3.24-1.75-4.21-3.88-4.2-7.47
			c0.12-55.02,0.07-110.04,0.1-165.06c0.01-21.62,0.26-43.24,0.03-64.86c-0.06-5.18,1.43-8.17,6.08-10.81
			c36.07-20.41,72.01-41.06,107.92-61.75c26.02-15,52-30.08,77.84-45.37c4.1-2.42,7.04-2.14,10.98,0.19
			c56.21,33.3,112.51,66.45,168.79,99.63c5.29,3.12,10.52,6.38,15.93,9.27c2.77,1.48,3.36,3.41,3.36,6.37
			c-0.08,74.35-0.36,148.71,0.28,223.05c0.1,11.24-3.26,17.05-12.89,22.38c-34.55,19.14-68.57,39.25-102.79,58.97
			c-1.19,0.69-2.47,1.22-4.34,2.14c-0.25-1.76-0.59-3.03-0.59-4.3c0.01-15.12,0.15-30.23,0.07-45.35c-0.02-3.15,0.84-5.08,3.75-6.7
			c21.78-12.13,43.46-24.46,65.18-36.68c1.02-0.57,2.25-0.77,4.56-1.52c-0.83,2.77-1.45,4.64-1.95,6.54
			c-1.54,5.82,0,10.61,4.14,13.01c4.31,2.5,10.58,1.49,14.53-2.39c4.46-4.37,5.72-9.95,5.73-15.91c0.05-32.34,0.08-64.68,0.1-97.03
			c0.02-33.92,0.11-67.85,0.02-101.77c-0.05-18.05-11.52-31.26-29.36-32.15c-6.59-0.33-13.71,2.45-19.99,5.17
			c-6.71,2.9-12.64,7.56-19.09,11.11c-1.46,0.81-4.12,0.95-5.52,0.15c-27.14-15.52-54.2-31.17-81.13-47.04
			c-1.76-1.04-3.2-4.05-3.29-6.21c-0.38-9.12-0.15-18.27-0.21-27.41c-0.05-7.33-5.78-13.15-12.84-13.15
			c-6.39,0-11.74,5.74-11.84,12.98c-0.12,9.31,0.14,18.64-0.21,27.94c-0.07,2-1.54,4.79-3.22,5.77
			c-26.94,15.86-54.05,31.43-81.04,47.22c-2.88,1.68-4.89,1.36-7.57-0.29c-7.48-4.59-14.97-9.23-22.79-13.19
			c-11.5-5.83-22.76-4.68-33.34,2.73c-8.46,5.93-12.13,14.13-12.09,24.38c0.16,39.37,0.2,78.75,0.24,118.12
			c0.03,28.47-0.09,56.95,0.03,85.42c0.04,9.78,6.95,17.02,15.3,16.61c8.6-0.42,12.81-7.09,9.47-15.01
			C396.74,553.06,396.09,551.48,394.81,548.42z"/>
		<path d="M324.43,450.62c-7.82,0-14.94,0-22.77,0c0-2.11,0-3.96,0-5.82c0.04-38.13,0.15-76.27,0.1-114.4
			c-0.02-14.84,5.94-25.52,19.16-33.07c62.67-35.75,125.11-71.9,187.63-107.92c7.6-4.38,15.05-9.04,22.77-13.2
			c10.48-5.66,20.88-5.78,31.47,0.47c52.77,31.12,105.64,62.07,158.49,93.05c16.2,9.5,32.42,18.99,48.72,28.32
			c11.68,6.69,16.79,16.73,16.75,30.01c-0.11,38.84-0.01,77.67,0.01,116.51c0,1.73,0,3.47,0,5.74c-7.69,0-15.08,0-22.97,0
			c0-1.98,0-3.87,0-5.77c0.05-36.73-0.08-73.45,0.24-110.18c0.1-11.4-4.38-19.25-14.21-24.96c-43.56-25.33-86.95-50.93-130.43-76.39
			c-20.75-12.15-41.58-24.15-62.32-36.31c-6.83-4-13.82-4.32-20.55-0.51c-17.87,10.11-35.53,20.57-53.3,30.84
			c-47.12,27.24-94.17,54.58-141.43,81.57c-11.6,6.62-17.73,15.14-17.52,29.12c0.55,35.66,0.16,71.34,0.15,107.01
			C324.43,446.47,324.43,448.22,324.43,450.62z"/>
		<path d="M395.83,527.44c0-13.08-0.01-24.83,0-36.58c0.05-46.37,0.1-92.74,0.16-139.11c0.01-7.99,5.75-11.33,12.67-7.33
			c6.99,4.04,14.06,7.96,20.79,12.4c1.53,1.01,2.48,3.95,2.49,6.02c0.24,29.51,0.28,59.03,0.36,88.54
			c0.05,16.16-0.05,32.33,0.24,48.49c0.08,4.54-1.09,7.4-5.29,9.65C416.97,515.04,406.94,521.06,395.83,527.44z"/>
		<path d="M692.68,527.31c-8.2-4.83-15.2-10.03-23-13.3c-10.37-4.34-13.23-10.83-13.01-22.04c0.82-41.94,0.42-83.91,0.19-125.86
			c-0.03-5.69,1.12-9.34,6.75-11.81c5.9-2.59,11.3-6.35,16.84-9.74c2.93-1.8,5.68-2.55,8.75-0.36c2.88,2.05,3.33,4.53,3.28,8.09
			c-0.31,22.81-0.25,45.63-0.16,68.45c0.13,34.4,0.37,68.8,0.55,103.2C692.87,524.63,692.8,525.32,692.68,527.31z"/>
		<path d="M509.18,412.91c0.01-21.05,16.14-34.92,36.16-35.24c19.33-0.31,35.17,16.86,34.77,36.73
			c-0.38,19.06-16.51,34.08-36.03,33.55C523.46,447.37,508.78,432.63,509.18,412.91z"/>
		<g>
			<path class="st1" d="M722.93,855.23c0-7.32-0.1-13.82-0.4-19.81c-0.11-2.28,1.7-4.2,3.98-4.2h4.15c2.15,0,3.92,1.71,3.99,3.86
				l0.36,11.24h0.64c3.5-10.33,11.92-16.85,21.31-16.85c0.02,0,0.03,0,0.05,0c2.18,0,3.93,1.81,3.93,3.99v5.23
				c0,2.22-1.81,4.04-4.04,3.99c-0.24-0.01-0.48-0.01-0.73-0.01c-9.86,0-16.85,7.47-18.76,17.97c-0.32,1.91-0.64,4.13-0.64,6.52
				v37.03c0,2.2-1.79,3.99-3.99,3.99h-5.86c-2.2,0-3.99-1.79-3.99-3.99V855.23z"/>
		</g>
	</g>
</g>
</svg>
