<svg xmlns="http://www.w3.org/2000/svg" fill="none" viewBox="0 0 2318 302"><path fill="#303030" d="M151 0a151 151 0 1 0 0 302 151 151 0 0 0 0-302Zm65 183-65 44-65-44v-64l65-43 65 43v64Z"/><path fill="#000" d="M460 216V85h25l2 19a46 46 0 0 1 41-22c21 0 35 8 43 24a52 52 0 0 1 45-24c17 0 29 5 39 15 9 10 14 24 14 44v75h-28v-72c0-26-10-38-29-38-10 0-18 3-25 11-6 7-9 18-9 31v68h-28v-72c0-26-10-38-29-38-10 0-18 3-24 11-6 7-9 18-9 31v68h-28Zm306 58 31-69h-8L738 85h30l40 97 42-97h30l-85 189h-29Zm263-55a52 52 0 0 1-46-23l-3 20h-25V26h28v79c5-6 10-11 18-16 7-5 17-7 28-7 13 0 24 3 34 9 9 6 17 14 23 24 5 11 8 23 8 36s-3 25-8 35c-6 10-14 18-23 24-10 6-21 9-34 9Zm-5-24c12 0 22-4 30-12 8-9 11-19 11-32 0-9-1-17-5-23-3-7-8-12-14-16-7-4-14-6-22-6-12 0-22 4-29 13-8 8-12 19-12 32s4 23 12 32c7 8 17 12 29 12Zm214 24c-12 0-23-3-34-8-9-6-17-14-23-24-6-11-9-23-9-36 0-14 3-26 9-36 6-11 14-19 24-24 10-6 21-9 34-9a65 65 0 0 1 57 33c6 10 9 22 9 36 0 13-3 25-9 36a64 64 0 0 1-58 32Zm0-24c7 0 13-2 19-5s10-8 14-15c3-6 5-15 5-24 0-10-2-19-5-25-4-7-8-12-14-15s-12-5-18-5c-7 0-13 2-19 5s-10 8-14 15c-3 6-5 15-5 25 0 9 2 18 5 24 4 7 8 12 14 15 5 3 12 5 18 5Zm211 24c-12 0-24-3-34-8-10-6-17-14-23-24-6-11-9-23-9-36 0-14 3-26 9-36 6-11 14-19 24-24 10-6 21-9 33-9a65 65 0 0 1 58 33c6 10 9 22 9 36 0 13-3 25-9 36a63 63 0 0 1-58 32Zm0-24c7 0 13-2 19-5 5-3 10-8 14-15 3-6 5-15 5-24 0-10-2-19-5-25-4-7-8-12-14-15s-12-5-19-5c-6 0-13 2-18 5-6 3-11 8-14 15-4 6-5 15-5 25 0 9 1 18 5 24 3 7 8 12 14 15 5 3 11 5 18 5Zm150 21V26h28v113l50-54h33l-55 59 64 72h-36l-56-67v67h-28Zm194 0V85h25l3 25c4-9 10-16 19-20 8-6 18-8 29-8v29h-7c-8 0-15 2-21 4-6 3-11 7-15 13-3 6-5 14-5 25v63h-28Zm154 2c-6 0-10-2-14-5-3-4-5-8-5-13s2-9 5-12a18 18 0 0 1 27 0 17 17 0 0 1 0 25c-4 3-8 5-13 5Zm114-158c-5 0-9-1-13-5-3-3-5-7-5-12s2-9 5-12c4-3 8-5 13-5 6 0 10 2 13 5 4 3 6 7 6 12s-2 9-6 12c-3 4-7 5-13 5Zm-14 156V85h28v131h-28Zm179 3c-12 0-23-3-33-8-10-6-18-14-24-24-6-11-9-23-9-36 0-14 3-26 9-36 6-11 14-19 24-24 10-6 21-9 34-9a65 65 0 0 1 57 33c6 10 9 22 9 36 0 13-3 25-9 36a64 64 0 0 1-58 32Zm0-24c7 0 13-2 19-5s10-8 14-15c3-6 5-15 5-24 0-10-2-19-5-25-3-7-8-12-14-15-5-3-12-5-18-5-7 0-13 2-19 5s-10 8-14 15c-3 6-5 15-5 25 0 9 2 18 5 24 4 7 8 12 14 15s12 5 18 5Z"/></svg>